# Alias OBJ Model File
# Exported from SketchUp, (c) 2000-2012 Trimble Navigation Limited
# File units = feet

mtllib PubliGarden_Bridge_Short_Deck.mtl

g Mesh1 ShortDeck Bos_PublicGardenBridge_1_1 Model

usemtl FrontColor
v 41266.7 51450.4 12.4332
vt 9.09495e-12 -13.6626
vn 0.0128308 0.00454201 0.999907
v 41369.3 51473.6 11.0108
vt 148.57 1240.3
v 41365.2 51485.3 11.0109
vt 3.63798e-12 1240.3
f 1/1/1 2/2/1 3/3/1

v 41270.8 51438.7 12.4331
vt 148.57 -13.6626
f 2/2/1 1/1/1 4/4/1

v 41266.6 51450.4 9.89274
vt -5.47812e-12 -30.4886
vn -0.942347 -0.334361 0.013611
vt 148.57 -5.65528e-14
vt 9.07379e-12 -5.65528e-14
f 5/5/2 4/6/2 1/7/2

v 41270.8 51438.7 9.89262
vt 148.57 -30.4886
f 4/6/2 5/5/2 6/8/2

v 41365.1 51485.3 8.46321
vt -9.12563e-12 1240.3
vn -0.0128967 -0.00456538 -0.999906
vt -148.57 -13.6605
vt 5.42637e-12 -13.6605
f 7/9/3 6/10/3 5/11/3

v 41369.3 51473.6 8.46308
vt -148.57 1240.3
f 6/10/3 7/9/3 8/12/3

vt -9.17063e-11 -30.5753
vn 0.942347 0.334361 -0.013611
vt -148.57 4.60087e-11
vt -148.57 -30.5753
f 7/13/4 2/14/4 8/15/4

vt -8.62493e-11 4.56677e-11
f 2/14/4 7/13/4 3/16/4

vt 13.6626 -30.4886
vn -0.334392 0.942434 9.979e-06
vt -1240.3 -1.13687e-13
vt -1240.3 -30.5753
f 5/17/5 3/18/5 7/19/5

vt 13.6626 -1.53477e-12
f 3/18/5 5/17/5 1/20/5

vt 1240.3 -6.57753e-12
vn 0.334392 -0.942434 -9.979e-06
vt -13.6626 -30.4886
vt 1240.3 -30.5753
f 2/21/6 6/22/6 8/23/6

vt -13.6626 -8.33968e-12
f 6/22/6 2/21/6 4/24/6

